<svg width="280" height="55" viewBox="0 0 280 55" fill="none" xmlns="http://www.w3.org/2000/svg">
<path d="M27.3737 36.3215C26.7568 36.7242 25.5488 37.2528 23.7496 37.9072C22.0017 38.5113 19.9455 38.8134 17.5808 38.8134C15.1648 38.8134 12.8772 38.4358 10.7181 37.6807C8.6105 36.9256 6.75988 35.7677 5.1663 34.2071C3.57271 32.5962 2.31327 30.6077 1.38796 28.2416C0.462654 25.8756 0 23.0565 0 19.7842C0 16.9148 0.43695 14.297 1.31085 11.931C2.18475 9.51457 3.4442 7.45056 5.08919 5.73895C6.78559 3.97699 8.84182 2.61777 11.2579 1.66128C13.674 0.654445 16.3985 0.151028 19.4315 0.151028C22.7728 0.151028 25.6773 0.402737 28.1448 0.906152C30.6637 1.35923 32.7713 1.78713 34.4677 2.18986V37.2276C34.4677 43.2686 32.8741 47.6483 29.6869 50.3668C26.4998 53.0852 21.6676 54.4444 15.1905 54.4444C12.6716 54.4444 10.2812 54.2431 8.01933 53.8403C5.80887 53.4376 3.88115 52.9594 2.23616 52.4056L3.54701 46.2891C4.98638 46.8429 6.73418 47.3211 8.79042 47.7238C10.8981 48.1769 13.0828 48.4035 15.3447 48.4035C19.6114 48.4035 22.67 47.5728 24.5206 45.9115C26.4227 44.2503 27.3737 41.6073 27.3737 37.9827V36.3215ZM27.2966 7.17368C26.5769 6.97231 25.6002 6.79612 24.3664 6.64509C23.1841 6.44373 21.5648 6.34305 19.5086 6.34305C15.6531 6.34305 12.6716 7.57641 10.5639 10.0432C8.50769 12.5099 7.47957 15.7821 7.47957 19.8598C7.47957 22.1251 7.7623 24.0633 8.32776 25.6742C8.94464 27.2851 9.74143 28.6192 10.7181 29.6764C11.7463 30.7336 12.9029 31.5138 14.188 32.0173C15.5246 32.5207 16.8869 32.7724 18.2748 32.7724C20.1768 32.7724 21.9246 32.5207 23.5182 32.0173C25.1118 31.4635 26.3713 30.8342 27.2966 30.1295V7.17368Z" fill="#008BCF"/>
<path d="M56.5305 35.1888C58.2269 35.1888 59.7177 35.1636 61.0028 35.1133C62.3394 35.0126 63.4446 34.8616 64.3185 34.6602V22.9558C63.8044 22.7041 62.9562 22.5027 61.7739 22.3517C60.643 22.1503 59.255 22.0496 57.61 22.0496C56.5305 22.0496 55.3739 22.1251 54.1401 22.2762C52.9578 22.4272 51.8525 22.7544 50.8244 23.2578C49.8477 23.7109 49.0252 24.3653 48.3569 25.2211C47.6887 26.0266 47.3545 27.109 47.3545 28.4682C47.3545 30.9853 48.177 32.7472 49.822 33.754C51.467 34.7105 53.7032 35.1888 56.5305 35.1888ZM55.9136 0C58.7924 0 61.2084 0.377565 63.1619 1.13269C65.1667 1.83747 66.7603 2.86947 67.9426 4.2287C69.1764 5.53758 70.0503 7.12334 70.5643 8.98598C71.0784 10.7983 71.3354 12.8119 71.3354 15.027V39.5685C70.7185 39.6692 69.8446 39.8202 68.7137 40.0216C67.6342 40.1726 66.4004 40.3236 65.0125 40.4747C63.6245 40.6257 62.108 40.7515 60.463 40.8522C58.8695 41.0032 57.2759 41.0787 55.6823 41.0787C53.4204 41.0787 51.3385 40.8522 49.4365 40.3991C47.5344 39.9461 45.8895 39.2413 44.5015 38.2848C43.1135 37.278 42.034 35.9691 41.2629 34.3581C40.4918 32.7472 40.1063 30.8091 40.1063 28.5437C40.1063 26.379 40.5432 24.5164 41.4171 22.9558C42.3424 21.3952 43.5762 20.1366 45.1184 19.1802C46.6605 18.2237 48.4598 17.5189 50.516 17.0658C52.5722 16.6127 54.7313 16.3862 56.9931 16.3862C57.7128 16.3862 58.4582 16.4365 59.2293 16.5372C60.0004 16.5876 60.7201 16.6882 61.3884 16.8393C62.108 16.94 62.7249 17.0406 63.239 17.1413C63.753 17.242 64.1129 17.3175 64.3185 17.3679V15.4045C64.3185 14.2467 64.19 13.114 63.9329 12.0065C63.6759 10.8486 63.2133 9.84179 62.545 8.98598C61.8767 8.07983 60.9514 7.37505 59.7691 6.87163C58.6381 6.31787 57.1474 6.041 55.2967 6.041C52.9321 6.041 50.8501 6.21719 49.0509 6.56958C47.3031 6.87163 45.9923 7.19885 45.1184 7.55124L44.2702 1.73679C45.1955 1.33406 46.7376 0.956494 48.8967 0.604101C51.0558 0.201368 53.3947 0 55.9136 0Z" fill="#008BCF"/>
<path d="M105.993 6.26753C104.913 7.42539 103.474 9.06149 101.675 11.1758C99.927 13.2902 98.0249 15.6311 95.9687 18.1985C93.9639 20.7659 91.9333 23.4592 89.8771 26.2783C87.8723 29.0974 86.0987 31.7907 84.5566 34.3581H106.61V40.2481H75.9975V35.5663C77.2312 33.3513 78.7477 30.9097 80.5469 28.2416C82.3461 25.5735 84.2224 22.9306 86.1759 20.3128C88.1807 17.6447 90.1084 15.1528 91.959 12.8371C93.8611 10.4711 95.506 8.48256 96.894 6.87163H77.077V0.981663H105.993V6.26753Z" fill="#008BCF"/>
<path d="M125.401 35.1888C127.098 35.1888 128.589 35.1636 129.874 35.1133C131.21 35.0126 132.316 34.8616 133.189 34.6602V22.9558C132.675 22.7041 131.827 22.5027 130.645 22.3517C129.514 22.1503 128.126 22.0496 126.481 22.0496C125.401 22.0496 124.245 22.1251 123.011 22.2762C121.829 22.4272 120.723 22.7544 119.695 23.2578C118.719 23.7109 117.896 24.3653 117.228 25.2211C116.56 26.0266 116.225 27.109 116.225 28.4682C116.225 30.9853 117.048 32.7472 118.693 33.754C120.338 34.7105 122.574 35.1888 125.401 35.1888ZM124.785 0C127.663 0 130.079 0.377565 132.033 1.13269C134.038 1.83747 135.631 2.86947 136.814 4.2287C138.047 5.53758 138.921 7.12334 139.435 8.98598C139.949 10.7983 140.206 12.8119 140.206 15.027V39.5685C139.589 39.6692 138.716 39.8202 137.585 40.0216C136.505 40.1726 135.271 40.3236 133.883 40.4747C132.495 40.6257 130.979 40.7515 129.334 40.8522C127.74 41.0032 126.147 41.0787 124.553 41.0787C122.291 41.0787 120.209 40.8522 118.307 40.3991C116.405 39.9461 114.76 39.2413 113.372 38.2848C111.984 37.278 110.905 35.9691 110.134 34.3581C109.363 32.7472 108.977 30.8091 108.977 28.5437C108.977 26.379 109.414 24.5164 110.288 22.9558C111.213 21.3952 112.447 20.1366 113.989 19.1802C115.531 18.2237 117.331 17.5189 119.387 17.0658C121.443 16.6127 123.602 16.3862 125.864 16.3862C126.584 16.3862 127.329 16.4365 128.1 16.5372C128.871 16.5876 129.591 16.6882 130.259 16.8393C130.979 16.94 131.596 17.0406 132.11 17.1413C132.624 17.242 132.984 17.3175 133.189 17.3679V15.4045C133.189 14.2467 133.061 13.114 132.804 12.0065C132.547 10.8486 132.084 9.84179 131.416 8.98598C130.748 8.07983 129.822 7.37505 128.64 6.87163C127.509 6.31787 126.018 6.041 124.168 6.041C121.803 6.041 119.721 6.21719 117.922 6.56958C116.174 6.87163 114.863 7.19885 113.989 7.55124L113.141 1.73679C114.066 1.33406 115.609 0.956494 117.768 0.604101C119.927 0.201368 122.266 0 124.785 0Z" fill="#008BCF"/>
<path d="M163.066 0.151028C163.683 0.151028 164.377 0.201369 165.148 0.302051C165.971 0.352395 166.767 0.453079 167.538 0.604101C168.31 0.704786 169.003 0.830641 169.62 0.981663C170.289 1.08235 170.777 1.18303 171.085 1.28371L169.852 7.40022C169.286 7.19885 168.335 6.97231 166.999 6.7206C165.714 6.41856 164.043 6.26753 161.987 6.26753C160.65 6.26753 159.313 6.41856 157.977 6.7206C156.692 6.97231 155.844 7.14851 155.432 7.24919V40.2481H148.261V2.64294C149.958 2.03884 152.065 1.48508 154.584 0.981663C157.103 0.427907 159.93 0.151028 163.066 0.151028Z" fill="#008BCF"/>
<path d="M178.415 36.1704C178.415 37.5297 177.952 38.7127 177.027 39.7195C176.102 40.7264 174.842 41.2298 173.249 41.2298C171.655 41.2298 170.396 40.7264 169.47 39.7195C168.545 38.7127 168.082 37.5297 168.082 36.1704C168.082 34.8112 168.545 33.6282 169.47 32.6214C170.396 31.6145 171.655 31.1111 173.249 31.1111C174.842 31.1111 176.102 31.6145 177.027 32.6214C177.952 33.6282 178.415 34.8112 178.415 36.1704Z" fill="#008BCF"/>
<path d="M185.054 2.11435C186.699 1.71162 188.858 1.28372 191.531 0.830641C194.255 0.377566 197.391 0.151028 200.938 0.151028C203.508 0.151028 205.667 0.503421 207.415 1.2082C209.163 1.86264 210.628 2.8443 211.81 4.15318C212.17 3.90148 212.736 3.54909 213.507 3.09601C214.278 2.64294 215.229 2.21503 216.36 1.8123C217.491 1.35923 218.75 0.981664 220.138 0.679613C221.526 0.327223 223.017 0.151028 224.61 0.151028C227.695 0.151028 230.214 0.604102 232.167 1.51025C234.121 2.36606 235.637 3.59943 236.717 5.21036C237.848 6.82129 238.593 8.73427 238.953 10.9493C239.364 13.1643 239.57 15.5807 239.57 18.1985V40.2481H232.398V19.7087C232.398 17.393 232.27 15.4045 232.013 13.7433C231.807 12.082 231.37 10.6976 230.702 9.59008C230.085 8.48256 229.211 7.6771 228.08 7.17368C227.001 6.61992 225.587 6.34305 223.839 6.34305C221.423 6.34305 219.418 6.67026 217.825 7.32471C216.283 7.9288 215.229 8.48256 214.663 8.98598C215.075 10.2949 215.383 11.7296 215.589 13.2902C215.794 14.8508 215.897 16.4869 215.897 18.1985V40.2481H208.726V19.7087C208.726 17.393 208.598 15.4045 208.341 13.7433C208.083 12.082 207.621 10.6976 206.953 9.59008C206.336 8.48256 205.462 7.6771 204.331 7.17368C203.251 6.61992 201.863 6.34305 200.167 6.34305C199.447 6.34305 198.676 6.36821 197.854 6.41856C197.031 6.4689 196.234 6.54441 195.463 6.64509C194.744 6.69543 194.075 6.77095 193.458 6.87163C192.842 6.97231 192.43 7.04783 192.225 7.09817V40.2481H185.054V2.11435Z" fill="#008BCF"/>
<path d="M247.614 2.11435C249.259 1.71162 251.444 1.28372 254.169 0.830641C256.893 0.377566 260.029 0.151028 263.576 0.151028C266.763 0.151028 269.41 0.604102 271.518 1.51025C273.626 2.36606 275.296 3.59943 276.53 5.21036C277.815 6.77095 278.715 8.65876 279.229 10.8738C279.743 13.0888 280 15.5304 280 18.1985V40.2481H272.829V19.7087C272.829 17.2923 272.649 15.2283 272.289 13.5167C271.981 11.8051 271.441 10.4207 270.67 9.36354C269.899 8.30637 268.871 7.55124 267.585 7.09817C266.3 6.59475 264.707 6.34305 262.805 6.34305C262.034 6.34305 261.237 6.36821 260.414 6.41856C259.592 6.4689 258.795 6.54441 258.024 6.64509C257.304 6.69543 256.636 6.77095 256.019 6.87163C255.454 6.97231 255.042 7.04783 254.785 7.09817V40.2481H247.614V2.11435Z" fill="#008BCF"/>
</svg>
